<?xml version="1.0" encoding="UTF-8"?>
<svg xmlns="http://www.w3.org/2000/svg" xmlns:xlink="http://www.w3.org/1999/xlink" width="561px" height="561px" viewBox="0 0 561 561" version="1.1">
<g id="surface1">
<path style=" stroke:none;fill-rule:nonzero;fill:rgb(0%,0%,0%);fill-opacity:1;" d="M 191.089844 126.316406 C 183.058594 135.71875 170.066406 158.28125 162.546875 175.714844 C 156.050781 190.414062 156.050781 190.414062 148.019531 192.464844 C 143.574219 193.660156 138.960938 195.371094 137.761719 196.394531 C 132.636719 200.667969 126.3125 215.539062 125.285156 225.96875 C 124.429688 236.394531 124.601562 237.078125 130.414062 244.597656 L 136.394531 252.632812 L 129.902344 266.304688 C 116.226562 294.851562 96.398438 312.796875 84.4375 307.328125 C 71.273438 301.347656 72.300781 270.921875 86.316406 246.992188 C 92.46875 236.394531 97.597656 233.488281 108.363281 234.855469 L 117.082031 235.878906 L 112.980469 232.460938 C 110.414062 230.238281 106.484375 229.042969 102.039062 229.042969 C 96.230469 229.042969 94.179688 230.070312 89.050781 235.539062 C 81.1875 243.742188 71.957031 262.714844 69.566406 275.535156 C 68.199219 282.886719 68.367188 287.671875 69.90625 294.851562 C 72.984375 308.183594 77.597656 312.96875 88.195312 313.996094 C 96.058594 314.847656 97.253906 314.335938 105.628906 307.671875 C 117.253906 298.609375 127.851562 284.082031 135.027344 267.671875 C 140.839844 254.683594 140.839844 254.683594 147.335938 254.683594 C 155.027344 254.683594 158.785156 252.972656 168.699219 245.109375 C 172.632812 241.863281 176.222656 239.8125 176.5625 240.496094 C 177.074219 241.351562 177.929688 248.015625 178.613281 255.539062 C 180.492188 279.125 185.109375 277.585938 189.039062 251.949219 C 190.40625 242.71875 193.484375 227.675781 195.875 218.789062 C 208.355469 171.441406 210.40625 119.648438 199.808594 119.648438 C 198.097656 119.648438 194.339844 122.726562 191.089844 126.316406 Z M 200.832031 137.597656 C 202.199219 147.511719 201.003906 162.894531 197.929688 180.328125 C 196.21875 190.414062 183.230469 220.667969 179.808594 222.890625 C 178.785156 223.402344 177.246094 219.472656 175.878906 212.804688 C 174.683594 206.652344 172.972656 201.695312 171.949219 201.695312 C 171.09375 201.695312 170.921875 201.183594 171.433594 200.5 C 172.972656 198.960938 167.675781 193.148438 164.597656 193.148438 C 160.835938 193.148438 162.035156 188.363281 169.898438 171.78125 C 178.273438 153.835938 194.679688 128.195312 197.757812 128.195312 C 198.953125 128.195312 200.148438 132.128906 200.832031 137.597656 Z M 152.460938 197.59375 C 153.144531 198.105469 152.121094 202.207031 150.410156 206.480469 C 148.53125 210.925781 145.113281 221.179688 142.71875 229.386719 C 140.328125 237.761719 137.761719 244.425781 137.078125 244.425781 C 134.34375 244.425781 129.902344 233.316406 129.902344 226.820312 C 129.902344 218.105469 136.566406 203.234375 142.035156 199.300781 C 146.136719 196.566406 150.753906 195.710938 152.460938 197.59375 Z M 165.28125 199.644531 C 168.359375 201.695312 172.289062 211.949219 173.65625 222.035156 C 174.851562 230.753906 174.683594 231.09375 168.1875 237.761719 C 157.761719 248.699219 146.480469 252.972656 144.257812 246.992188 C 143.746094 245.625 146.652344 234.171875 150.753906 221.351562 C 158.101562 198.449219 159.640625 196.054688 165.28125 199.644531 Z M 186.132812 232.632812 C 184.425781 239.46875 184.082031 239.8125 182.546875 236.5625 C 181.175781 233.828125 181.519531 231.777344 183.742188 228.359375 C 187.84375 222.207031 188.699219 223.746094 186.132812 232.632812 Z M 186.132812 232.632812 "/>
</g>
</svg>
