<svg fill="none" height="240" viewBox="0 0 240 240" width="240" class="css-1kzq5ms"><path d="M0 120C0 53.726 53.726 0 120 0s120 53.726 120 120-53.726 120-120 120S0 186.274 0 120z" fill="#C3F53C"></path><path d="M78.461 74.78c-3.21 0-8.061 9.096-8.061 20.32 0 11.225 4.846 20.321 8.061 20.321" fill="#FFC657"></path><path d="M78.461 74.78c-3.21 0-8.061 9.096-8.061 20.32 0 11.225 4.846 20.321 8.061 20.321" stroke="#1D1D1B" stroke-linecap="round" stroke-linejoin="round" stroke-width="0.33"></path><path d="M82.964 109.719c1.096-3.694 1.78-8.875 1.78-14.618 0-5.744-.684-10.92-1.78-14.619V74.78h-4.037c-3.21 0-5.816 9.096-5.816 20.32 0 11.225 2.606 20.321 5.816 20.321.103 0 .209-.012.311-.029h3.73v-5.673h-.004z" stroke="#1D1D1B" stroke-linecap="round" stroke-linejoin="round" stroke-width="0.33"></path><path d="M120.882 48c-12.307 0-23.758 4.729-32.31 12.917-4.344 3.743-9.78 10.629-12.479 16.434-.384.752-.744 1.656-1.072 2.683-.049.148-.09.296-.135.444-.02.066-.036.127-.057.193a5.327 5.327 0 00-.012.037c-1.06 3.681-1.714 8.772-1.714 14.396 0 11.225 2.606 20.321 5.816 20.321.102 0 .209-.012.311-.029h3.73v-5.678c1.096-3.693 1.78-8.874 1.78-14.618s-.684-10.92-1.78-14.618v-4.766l1.775-.156s-1.82-1.619-.262-4.733c8.078-12.161 21.599-19.672 36.401-19.672 24.126 0 43.75 19.717 43.75 43.95 0 16.585-9.141 31.589-23.853 39.149a1.585 1.585 0 00-.683 2.124 1.57 1.57 0 002.115.686c15.767-8.106 25.562-24.182 25.562-41.96C167.773 69.13 146.739 48 120.882 48z" fill="#FFC657"></path><path d="M120.882 48c-12.307 0-23.758 4.729-32.31 12.917-4.344 3.743-9.78 10.629-12.479 16.434-.384.752-.744 1.656-1.072 2.683-.049.148-.09.296-.135.444-.02.066-.036.127-.057.193a5.327 5.327 0 00-.012.037c-1.06 3.681-1.714 8.772-1.714 14.396 0 11.225 2.606 20.321 5.816 20.321.102 0 .209-.012.311-.029h3.73v-5.678c1.096-3.693 1.78-8.874 1.78-14.618s-.684-10.92-1.78-14.618v-4.766l1.775-.156s-1.82-1.619-.262-4.733c8.078-12.161 21.599-19.672 36.401-19.672 24.126 0 43.75 19.717 43.75 43.95 0 16.585-9.141 31.589-23.853 39.149a1.585 1.585 0 00-.683 2.124 1.57 1.57 0 002.115.686c15.767-8.106 25.562-24.182 25.562-41.96C167.773 69.13 146.739 48 120.882 48z" stroke="#1D1D1B" stroke-linecap="round" stroke-linejoin="round" stroke-width="0.33"></path><path d="M82.023 74.993v1.63c.27-.615.569-1.228.888-1.832l-.888.202z" fill="#BF8006"></path><path d="M73.254 99.633c.59 9.043 2.904 15.793 5.67 15.793.101 0 .208-.012.31-.029h3.73v-5.678c.797-2.691 1.374-6.175 1.632-10.086H73.254z" fill="#FFC657"></path><path d="M170.979 172.143c0-4.688-2.662-8.964-6.859-11.011l-26.208-12.937a11.055 11.055 0 01-6.151-9.922v-11.619h-20.552v11.59c0 4.232-2.405 8.09-6.188 9.943l-26.487 12.945a12.253 12.253 0 00-6.859 11.011v11.2c0 4.54 22.23 8.217 49.652 8.217 27.423 0 49.652-3.677 49.652-8.217v-11.2z" fill="#C3F53A" stroke="#1D1D1B" stroke-linecap="round" stroke-linejoin="round" stroke-width="0.33"></path><path d="M137.909 148.195a11.056 11.056 0 01-6.152-9.922v-11.619h-20.552v11.59c0 2.161-.629 4.219-1.746 5.97 7.01-7.934 23.701 1.635 28.45 3.981zM170.751 169.798c0 5.587-2.466 17.042-8.724 18.254 7.174-2.523 8.953-2.942 8.953-6.216 0-3.275-.229-12.038-.229-12.038zM153.074 155.487c-3.059.748-6.237 4.979-6.237 4.979s1.12 1.907-.495 3.443c-3.264 3.114-4.213 10.292-8.139 7.515 0 0-6.61-5.021-3.182-8.801 3.427-3.78 5.129-5.645 8.536-4.482.678-1.327 3.86-4.647 5.431-4.359 1.607.628 4.086 1.705 4.086 1.705z" fill="#36D136"></path><path d="M170.979 172.143c0-4.688-2.662-8.964-6.859-11.011l-26.208-12.937a11.055 11.055 0 01-6.151-9.922v-11.619h-20.552v11.59c0 4.232-2.405 8.09-6.188 9.943l-26.487 12.945a12.253 12.253 0 00-6.859 11.011v11.2c0 4.54 22.23 8.217 49.652 8.217 27.423 0 49.652-3.677 49.652-8.217v-11.2 0z" stroke="#1D1D1B" stroke-linecap="round" stroke-linejoin="round" stroke-width="0.33"></path><path d="M91.025 95.1c0 11.225-4.846 20.321-8.061 20.321s-5.816-9.096-5.816-20.32c0-11.225 2.605-20.321 5.816-20.321 3.21 0 8.061 9.1 8.061 20.32z" fill="#FFC657" stroke="#1D1D1B" stroke-linecap="round" stroke-linejoin="round" stroke-width="0.33"></path><path d="M82.964 115.424c3.21 0 8.062-9.096 8.062-20.32 0-9.286-3.317-17.113-6.283-19.537-.147 11.669-6.822 15.153-7.447 24.085.061.944.143 1.861.241 2.752.838 7.613 2.953 13.02 5.427 13.02z" fill="#BF8006"></path><path d="M91.025 95.1c0 11.225-4.846 20.321-8.061 20.321s-5.816-9.096-5.816-20.32c0-11.225 2.605-20.321 5.816-20.321 3.21 0 8.061 9.1 8.061 20.32z" stroke="#1D1D1B" stroke-linecap="round" stroke-linejoin="round" stroke-width="0.33"></path><path d="M79.349 78.7s1.689-4.815 3.91-8.636c8.196-12.342 21.914-19.96 36.932-19.96 24.478 0 44.388 20.005 44.388 44.59l.049.411c0-24.236-19.627-43.949-43.75-43.949-14.801 0-28.323 7.51-36.4 19.672-1.559 3.118.261 4.733.261 4.733l-.957-.501a2.125 2.125 0 00-2.83.83L79.35 78.7z" fill="#BF8006"></path><path d="M158.014 102.161c-4.646 5.107-10.356 8.805-16.711 11.455-6.254 2.638-12.974 4.055-19.747 4.638h-.02a1.587 1.587 0 01-.282.029c-8.082.957-15.571-.563-23.39-2.855-4.213-1.229-8.512-2.975-11.326-6.373 3.914 8.76 11.231 15.736 20.335 19.36.422.168.851.328 1.281.48.409.148.822.292 1.235.424a.32.32 0 00.073.02c.438.14.871.271 1.325.395.385.111.778.213 1.17.308.008.008.021.008.029.008.18.045.364.086.544.123.822.189 1.652.349 2.495.481.335.057.67.111 1.002.148.151.02.298.045.441.057l.982.111a40.24 40.24 0 003.681.169c1.157 0 2.298-.046 3.427-.161a38 38 0 0010.25-2.337h.008c11.656-4.421 20.515-14.335 23.214-26.484h-.016v.004z" fill="#36D136"></path><path d="M121.131 57.392c-19.055 0-34.822 13.763-37.398 31.684a35.28 35.28 0 00-.385 5.202c0 5.267 1.13 10.259 3.186 14.778 2.814 3.398 7.113 5.144 11.325 6.372 7.82 2.293 15.309 3.813 23.391 2.856.094 0 .188-.017.282-.029h.021c6.772-.583 13.492-2.001 19.746-4.638 6.356-2.65 12.065-6.348 16.711-11.455h.017c.58-2.535.887-5.164.887-7.884 0-20.374-16.924-36.886-37.783-36.886z" fill="#C3F53A"></path><path d="M116.027 130.81c.152.02.299.045.442.057-.151-.016-.299-.029-.442-.057zM115.021 130.664c.335.058.67.111 1.002.148-.332-.045-.667-.09-1.002-.148zM111.982 130.06c.18.045.364.086.544.123-.18-.037-.36-.082-.544-.123zM110.784 129.743zM109.459 129.347zM108.15 128.904zM106.87 128.419c.421.168.85.329 1.28.481a24.32 24.32 0 01-1.28-.481z" fill="#36D136"></path><path d="M109.386 129.33a26.46 26.46 0 01-1.236-.424 28.165 28.165 0 01-1.28-.48M111.954 130.052a38.679 38.679 0 01-2.495-.703M112.527 130.183c-.18-.037-.364-.082-.544-.123M116.469 130.869c-.147-.016-.29-.036-.442-.057-.335-.045-.67-.086-1.002-.148" stroke="#1D1D1B" stroke-linecap="round" stroke-linejoin="round" stroke-miterlimit="10" stroke-width="0.33"></path><path d="M117.676 131.001c-.074-.008-.151-.017-.225-.021l-.982-.111c-.151-.016-.298-.028-.441-.057a13.435 13.435 0 01-1.002-.148 35.913 35.913 0 01-2.495-.481c-.18-.037-.364-.082-.544-.123-.008 0-.021 0-.029-.008a28.28 28.28 0 01-1.17-.308 34.492 34.492 0 01-1.325-.395c-.028-.008-.049-.016-.073-.02-.413-.132-.831-.28-1.236-.424a35.724 35.724 0 01-1.28-.48c-9.104-3.624-16.42-10.6-20.335-19.36a35.539 35.539 0 01-3.186-14.778c0-1.762.131-3.509.385-5.201C86.31 71.164 102.08 57.4 121.136 57.4c20.859 0 37.783 16.512 37.783 36.886 0 2.72-.307 5.35-.888 7.884-2.699 12.149-11.558 22.063-23.214 26.484h-.008a38.004 38.004 0 01-10.25 2.338" stroke="#1D1D1B" stroke-linecap="round" stroke-linejoin="round" stroke-miterlimit="10" stroke-width="0.33"></path><path d="M73.112 95.1c0 11.225 2.605 20.321 5.815 20.321M78.927 115.425h3.739" stroke="#1D1D1B" stroke-linecap="round" stroke-linejoin="round" stroke-width="0.33"></path><path d="M149.07 131.255c4.691-3.673 11.427-10.407 12.973-13.517-4.225 8.094-10.822 13.242-12.609 14.651-1.55-.973-.364-1.134-.364-1.134z" fill="#BF8006"></path><path d="M142.215 137.065c15.767-8.106 25.562-24.183 25.562-41.96" stroke="#1D1D1B" stroke-linecap="round" stroke-linejoin="round" stroke-width="0.33"></path><path d="M149.438 132.39c-.528-2.704-3.142-4.466-5.833-3.932a4.783 4.783 0 00-1.255.435l-.004-.004-4.679 2.149a5.325 5.325 0 00-.422.193l-.065.029a5.002 5.002 0 00-2.544 5.365c.528 2.704 3.141 4.466 5.832 3.932a4.924 4.924 0 001.133-.374v.005l4.83-2.219c.082-.033.164-.074.246-.111l.147-.07v-.004a4.993 4.993 0 002.614-5.394z" fill="#FFC657" stroke="#1D1D1B" stroke-linecap="round" stroke-linejoin="round" stroke-width="0.33"></path><path d="M149.438 132.388a4.866 4.866 0 00-.106-.432c-.07-.156-.123-.3-.197-.46.79 2.584-5.546 2.19-7.141 4.754-1.309 2.099-5.382 3.397-7.243.78.699 2.474 3.178 4.035 5.734 3.53.401-.079.777-.21 1.133-.374v.004l4.83-2.219c.082-.033.164-.074.246-.111l.147-.07v-.004a5.01 5.01 0 002.597-5.398z" fill="#BF8006"></path><path d="M149.438 132.39c-.528-2.704-3.142-4.466-5.833-3.932a4.783 4.783 0 00-1.255.435l-.004-.004-4.679 2.149a5.325 5.325 0 00-.422.193l-.065.029a5.002 5.002 0 00-2.544 5.365c.528 2.704 3.141 4.466 5.832 3.932a4.924 4.924 0 001.133-.374v.005l4.83-2.219c.082-.033.164-.074.246-.111l.147-.07v-.004a4.993 4.993 0 002.614-5.394z" stroke="#1D1D1B" stroke-linecap="round" stroke-linejoin="round" stroke-width="0.33"></path><path d="M122.055 220.801c26.304 0 47.628-3.63 47.628-8.107 0-4.476-21.324-8.106-47.628-8.106-26.303 0-47.627 3.63-47.627 8.106 0 4.477 21.324 8.107 47.627 8.107z" fill="#1D1D1B" opacity="0.15"></path><path d="M84.739 75.564s-1.82-1.619-.262-4.733c8.078-12.162 21.599-19.672 36.401-19.672 24.126 0 43.75 19.717 43.75 43.949" stroke="#1D1D1B" stroke-linecap="round" stroke-linejoin="round" stroke-width="0.33"></path><path d="M77.148 95.1c0-11.224 2.605-20.32 5.816-20.32.904 0 1.943.723 2.961 2.013M158.423 117.739c.626-.629 3.203.867 2.708 1.684" stroke="#1D1D1B" stroke-linecap="round" stroke-linejoin="round" stroke-width="0.33"></path></svg>