<?xml version="1.0" encoding="UTF-8" standalone="no"?>
<!DOCTYPE svg PUBLIC "-//W3C//DTD SVG 1.1//EN" "http://www.w3.org/Graphics/SVG/1.1/DTD/svg11.dtd">
<svg height="100%" stroke-miterlimit="10" style="fill-rule:nonzero;clip-rule:evenodd;stroke-linecap:round;stroke-linejoin:round;background-color:#91E861" version="1.1" viewBox="0 0 680.4 680.4" width="100%" xml:space="preserve" xmlns="http://www.w3.org/2000/svg"  xmlns:xlink="http://www.w3.org/1999/xlink">
<g id="Layer-3">
<path d="M540.855 373.235C541.339 372.993 541.162 370.206 541.33 369.645C542.534 365.631 543.184 357.607 542.703 353.276C542.425 350.771 543.04 348.105 543.231 345.62C543.518 341.883 543.366 338.113 543.653 334.373C544.49 323.504 543.049 311.562 540.749 301.213C540.128 298.417 539.038 295.825 538.479 293.028C538.267 291.971 538.991 290.634 538.848 289.49C538.768 288.845 536.903 286.212 538.056 285.636C538.26 285.534 540.632 285.638 541.172 285.53C544.8 284.805 549.993 289.282 552.102 291.391C553.09 292.379 553.122 294.126 554.056 295.246C554.62 295.923 555.463 295.903 555.956 296.724C556.522 297.666 555.633 298.966 556.22 299.945C557.159 301.51 558.591 303.519 559.283 305.595C560.879 310.383 559.642 315.612 560.392 320.486C561.276 326.233 561.827 333.549 560.233 339.125C559.803 340.631 560.208 342.428 559.917 343.983C558.929 349.249 558.267 355.097 555.851 359.929C554.003 363.624 553.021 367.67 549.99 370.701C548.368 372.323 546.614 372.593 544.551 373.183C544.201 373.283 542.859 373.24 542.756 373.447" fill="#c1bf55" fill-rule="nonzero" opacity="1" stroke="none"/>
<path d="M143.28 290.053C143.454 290.375 140.15 290.955 139.563 291.136C137.146 291.88 134.425 292.928 132.345 294.384C126.167 298.709 124.494 304.41 122.457 311.201C121.189 315.428 120.297 319.973 119.642 324.338C118.692 330.672 119.239 337.022 119.931 343.248C120.812 351.18 120.98 359.863 125.055 366.995C126.232 369.053 128.581 369.987 129.964 371.83C132.499 375.211 136.006 376.951 139.635 377.677C141.09 377.968 140.403 372.924 140.285 372.336C139.712 369.473 139.84 366.649 139.274 363.819C138.801 361.45 137.092 359.051 137.398 356.601C138.657 346.529 136.195 336.17 137.326 325.998C137.749 322.185 138.353 318.173 138.986 314.377C139.235 312.881 140.141 311.559 140.141 310.046C140.141 306.992 141.683 303.697 142.739 300.88C143.385 299.157 143.223 297.394 143.966 295.611C144.42 294.521 144.885 292.031 144.688 290.847C144.61 290.379 143.135 289.784 143.28 290.053Z" fill="#c1bf55" fill-rule="nonzero" opacity="1" stroke="#c1bf55" stroke-linecap="round" stroke-linejoin="round" stroke-width="0.263507"/>
<path d="M419.177 232.537C419.198 232.527 419.503 231.114 419.55 230.691C419.712 229.223 419.868 227.764 420.057 226.299C420.542 222.54 420.387 218.61 420.568 214.828C420.912 207.631 420.288 199.617 419.711 192.442C419.435 188.994 419.701 185.526 419.481 182.078C419.435 181.352 418.905 180.523 419.046 179.811C419.467 177.685 428.003 178.292 429.781 178.842C430.114 178.945 431.478 178.85 431.718 178.646C431.775 178.599 432.21 178.024 432.309 178.118C432.638 178.433 433.313 189.075 433.533 190.411C434.291 195.012 433.935 200.079 433.926 204.749C433.914 210.781 434.575 216.759 434.441 222.821C434.369 226.09 435.193 231.075 433.97 234.163C433.434 235.516 430.728 233.794 429.947 234.025C427.092 234.87 423.889 234.188 420.971 234.088C420.349 234.067 417.739 233.276 419.177 232.537Z" fill="#c1bf55" fill-rule="nonzero" opacity="1" stroke="#c1bf55" stroke-linecap="round" stroke-linejoin="round" stroke-width="0.14633" />
<path d="M180.27 422.915C179.114 424.817 175.926 431.114 175.285 432.324C171.469 439.53 161.877 458.58 157.168 469.276C153.599 477.383 147.635 491.18 144.041 497.885C140.922 503.702 128.976 530.637 130.56 532.072C132.5 533.83 156.883 513.218 164.715 506.741C185.1 489.884 190.017 485.505 194.462 481.667C198.264 478.386 218.07 460.945 221.806 457.929C227.283 453.507 235.83 444.431 239.112 441.06" fill="none" opacity="1" stroke="#000000" stroke-linecap="round" stroke-linejoin="round" stroke-width="3"/>
<path d="M180.223 422.915C176.792 420.42 163.448 413.675 157.302 406.714C126.892 372.263 135.304 306.222 154.388 271.63" fill="none" opacity="1" stroke="#000000" stroke-linecap="round" stroke-linejoin="round" stroke-width="3" />
<path d="M154.388 271.63C169.056 255.343 220.227 244.048 236.015 240.752C248.212 238.205 265.121 234.9 271.375 234.498C275.58 234.228 306.332 232.451 320.454 231.985C338.365 231.394 361.093 231.985 372.525 231.985" fill="none" opacity="1" stroke="#000000" stroke-linecap="round" stroke-linejoin="round" stroke-width="3" />
<path d="M372.525 231.985C383.724 232.553 427.024 234.565 443.96 236.65C452.215 237.667 462.498 239.665 470.738 241.298C476.532 242.447 482.191 243.967 485.006 244.754C485.006 244.754 505.255 250.222 516.323 255.431" fill="none" opacity="1" stroke="#000000" stroke-linecap="round" stroke-linejoin="round" stroke-width="3"/>
<path d="M516.323 255.431C517.732 256.653 519.161 258.078 520.573 259.646C526.384 266.092 531.925 274.931 534.759 281.838C538.499 290.955 541.814 306.397 541.814 306.397C541.814 306.397 544.087 326.531 543.718 337.134C543.535 342.396 542.429 358.54 542.121 362.206C541.807 365.93 540.107 376.623 539.546 380.188C538.587 386.272 537.255 391.484 536.3 394.176C533.397 402.358 530.325 406.554 530.32 406.663" fill="none" opacity="1" stroke="#000000" stroke-linecap="round" stroke-linejoin="round" stroke-width="3"/>
<path d="M530.32 406.663C529.143 408.793 525.806 412.814 523.331 414.591C516.878 419.224 510.05 422.258 503.588 424.498C497.149 426.73 483.62 431.466 474.274 433.546C462.182 436.238 461.699 437.13 454.452 438.687C445.106 440.694 431.312 442.853 418.586 444.531C407.771 445.958 365.348 446.806 341.705 447.215C329.652 447.423 308.007 445.866 298.571 445.408C292.574 445.117 268.779 443.286 260.034 442.613C253.674 442.123 258.079 442.045 239.375 441.104" fill="none" opacity="1" stroke="#000000" stroke-linecap="round" stroke-linejoin="round" stroke-width="3" />
<path d="M415.759 150.569C415.635 150.399 413.398 153.174 413.149 153.631C411.388 156.868 409.774 159.738 410.096 163.536C411.244 177.067 429.084 182.912 438.124 173.051C441.167 169.732 442.791 161.406 439.722 157.572C438.614 156.186 436.661 155.058 435.372 153.797C433.857 152.316 432.875 150.351 430.725 149.563C428.926 148.903 425.695 149.734 423.79 149.864C419.808 150.136 418.024 148.565 414.866 151.739" fill="#c1bf55" fill-rule="nonzero" opacity="1" stroke="#c1bf55" stroke-linecap="round" stroke-linejoin="round" stroke-width="0.172244"/>
<path d="M250.276 155.77C250.474 155.853 249.714 155.945 249.489 156.085C248.877 156.466 248.288 156.988 247.691 157.407C246.537 158.219 244.437 160.4 243.659 161.535C240.39 166.306 239.817 170.351 241.091 176.097C241.246 176.795 242.22 177.169 242.682 177.677C248.368 183.936 256.914 185.996 264.919 183.174C265.88 182.835 267.632 182.973 268.372 182.08C270.525 179.478 272.082 176.737 272.249 173.257C272.329 171.601 271.337 170.051 271.506 168.426C271.662 166.926 272.288 165.165 271.542 163.713C270.111 160.926 267.887 159.404 265.83 157.14C263.997 155.123 257.494 156.657 255.073 155.174C254.052 154.549 250.243 155.757 250.276 155.77Z" fill="#c1bf55" fill-rule="nonzero" opacity="1" stroke="#000000" stroke-linecap="round" stroke-linejoin="round" stroke-width="0.687117"/>
<path d="M194.483 285.116C193.584 287.364 193.543 288.907 192.212 294.631C190.6 301.562 189.443 310.277 188.621 314.256C187.832 318.076 186.235 336.268 186.229 342.262C186.215 356.725 189.572 376.426 190.489 378.017C191.672 380.072 190.701 379.344 194.483 382.614" fill="none" opacity="1" stroke="#000000" stroke-linecap="round" stroke-linejoin="round" stroke-width="3"/>
<path d="M194.483 285.116C196.477 281.164 196.361 280.469 198.918 278.731C200.416 277.713 202.102 276.662 203.425 276.318C209.886 274.638 234.031 270.64 241.94 269.315C241.94 269.315 316.563 264.532 324.842 264.075C359.883 262.141 435.295 264.361 455.169 266.323C470.004 267.789 494.634 270.429 504.747 280.539" fill="none" opacity="1" stroke="#000000" stroke-linecap="round" stroke-linejoin="round" stroke-width="3" />
<path d="M194.483 382.614C203.732 388.254 231.837 395.565 240.321 397.136C251.569 399.219 351.174 407.017 403.64 403.892C427.993 402.442 444.109 401.295 458.306 398.66C478.414 394.928 494.978 389.17 503.206 385.513C504.122 385.106 505.902 384.539 509.797 381.701" fill="none" opacity="1" stroke="#000000" stroke-linecap="round" stroke-linejoin="round" stroke-width="3" />
<path d="M254.35 185.494C254.351 185.542 254.237 189.049 254.321 190.274C254.567 193.833 255.377 197.475 256.075 200.964C256.991 205.545 257.299 210.447 257.998 215.104C258.496 218.428 260.226 221.524 259.977 225.003C259.934 225.61 260.496 234.361 260.713 234.505C262.139 235.456 267.074 234.632 268.575 234.223C271.53 233.417 270.328 224.832 270.102 222.344C269.307 213.598 266.785 204.91 265.69 196.156C265.228 192.457 265.597 188.24 264.446 184.787C264.322 184.414 260.406 185.691 260.034 185.805C258.957 186.136 257.085 185.804 255.962 185.692C255.513 185.647 255.101 185.585 254.661 185.522C254.466 185.494 253.969 185.843 254.095 185.692C254.223 185.538 254.347 185.39 254.35 185.494Z" fill="#c1bf55" fill-rule="nonzero" opacity="1" stroke="#c1bf55" stroke-linecap="round" stroke-linejoin="round" stroke-width="0.14633"/>
<path d="M504.747 280.539C522.762 306.088 514.684 378.668 509.828 381.701" fill="none" opacity="1" stroke="#000000" stroke-linecap="round" stroke-linejoin="round" stroke-width="3" />
<path d="M253.52 184.547C253.52 195.29 259.378 224.94 260.034 235.644" fill="none" opacity="1" stroke="#000000" stroke-linecap="round" stroke-linejoin="round" stroke-width="3" />
<path d="M265.573 184.547C266.092 195.984 271.185 234.23 271.182 234.228" fill="none" opacity="1" stroke="#000000" stroke-linecap="round" stroke-linejoin="round" stroke-width="3" />
<path d="M252.004 154.773C240.475 156.279 227.409 185.543 260.034 184.547C275.598 184.073 274.017 166.296 269.312 159.973C265.475 154.817 257.661 153.851 252.034 154.773" fill="none" opacity="1" stroke="#000000" stroke-linecap="round" stroke-linejoin="round" stroke-width="3"/>
<path d="M271.182 151.5C273.766 152.106 280.239 159.594 280.597 165.704" fill="none" opacity="1" stroke="#000000" stroke-linecap="round" stroke-linejoin="round" stroke-width="3" />
<path d="M418.573 178.59C418.573 198.571 421.697 214.489 418.586 234.228" fill="none" opacity="1" stroke="#000000" stroke-linecap="round" stroke-linejoin="round" stroke-width="3"/>
<path d="M433.222 176.973C433.317 182.93 433.371 182.534 433.533 187.782C433.705 193.35 434.015 200.481 434.79 212.761C435.117 217.953 434.946 231.69 434.938 235.644" fill="none" opacity="1" stroke="#000000" stroke-linecap="round" stroke-linejoin="round" stroke-width="3" />
<path d="M424.909 148.27C402.669 146.83 404.039 178.59 424.298 178.59C427.728 178.59 430.608 177.996 432.967 176.973C449.783 169.686 440.192 140.672 415.285 150.346" fill="none" opacity="1" stroke="#000000" stroke-linecap="round" stroke-linejoin="round" stroke-width="3"/>
<path d="M145.867 289.755C142.545 290.255 136.773 290.972 132.372 293.365C125.14 297.298 122.236 307.547 120.913 314.44C117.531 332.066 116.659 353.743 126.642 370.029C128.342 372.801 140.306 380.571 142.074 378.168" fill="none" opacity="1" stroke="#000000" stroke-linecap="round" stroke-linejoin="round" stroke-width="3" />
<path d="M536.47 285.293C534.127 285.293 541.943 284.913 546.744 286.691C554.162 289.44 560.028 306.585 560.98 313.22C564.098 334.949 558.638 378.623 540.507 373.618" fill="none" opacity="1" stroke="#000000" stroke-linecap="round" stroke-linejoin="round" stroke-width="3"/>
<path d="M385.753 303.888C374.469 300.038 373.193 325.941 382.926 325.811C394.461 325.657 389.364 305.121 385.753 303.888Z" fill="none" opacity="1" stroke="#000000" stroke-linecap="round" stroke-linejoin="round" stroke-width="3"/>
<path d="M308.436 303.723C298.424 300.887 294.762 325.811 304.598 325.812C314.966 325.812 313.581 305.18 308.436 303.723Z" fill="none" opacity="1" stroke="#000000" stroke-linecap="round" stroke-linejoin="round" stroke-width="3" />
<path d="M376.383 347.272C373.838 362.279 358.492 379.419 328.325 372.388C309.85 368.082 304.017 347.272 304.017 347.272" fill="none" opacity="1" stroke="#000000" stroke-linecap="round" stroke-linejoin="round" stroke-width="3"/>
<path d="M437.31 143.638C436.963 143.292 438.38 144.28 438.667 144.453C439.629 145.03 440.418 145.835 441.291 146.534C443.875 148.601 445.945 151.175 446.992 154.316" fill="none" opacity="1" stroke="#000000" stroke-linecap="round" stroke-linejoin="round" stroke-width="3"/>
<path d="M158.726 523.339C159.533 522.745 164.661 518.418 165.447 517.834C184.256 503.878 192.542 496.829 196.593 493.383C200.49 490.067 212.181 480.479 216.604 476.371C216.604 476.371 234.629 459.254 232.213 461.467" fill="none" opacity="1" stroke="#000000" stroke-linecap="round" stroke-linejoin="round" stroke-width="3" />
<path d="M121.91 521.255C123.365 516.484 123.131 517.106 123.365 516.484C125.536 510.698 127.097 506.434 129.527 500.75" fill="none" opacity="1" stroke="#000000" stroke-linecap="round" stroke-linejoin="round" stroke-width="3"/>
<path d="M451.237 150.356C450.879 149.998 450.732 149.478 450.467 149.046C449.944 148.197 452.715 152.342 452.162 151.512C451.671 150.776 451.45 150.569 451.237 150.356Z" fill="none" opacity="1" stroke="#000000" stroke-linecap="round" stroke-linejoin="round" stroke-width="3"/>
<path d="M503.469 232.804C501.141 230.476 518.778 237.993 520.254 238.799C534.495 246.566 539.04 250.392 546.432 265.176" fill="none" opacity="1" stroke="#000000" stroke-linecap="round" stroke-linejoin="round" stroke-width="3"/>
<path d="M538.563 238.013C542.07 240.819 547.255 245.156 548.954 249.403" fill="none" opacity="1" stroke="#000000" stroke-linecap="round" stroke-linejoin="round" stroke-width="3" />
</g>
</svg>
