<?xml version="1.0" encoding="UTF-8" standalone="no"?>
<!DOCTYPE svg PUBLIC "-//W3C//DTD SVG 1.1//EN" "http://www.w3.org/Graphics/SVG/1.1/DTD/svg11.dtd">
<!-- Created with Vectornator (http://vectornator.io/) -->
<svg height="100%" stroke-miterlimit="10" style="fill-rule:nonzero;clip-rule:evenodd;stroke-linecap:round;stroke-linejoin:round;" version="1.1" viewBox="0 0 1060.44 217.577" width="100%" xml:space="preserve" xmlns="http://www.w3.org/2000/svg" xmlns:xlink="http://www.w3.org/1999/xlink">
<defs/>
<g id="Layer-4">
<path d="M179.099 25.7413C174.899 25.732 173.63 26.9215 173.047 27.0712C171.254 27.5319 167.374 30.8512 165.585 33.3977C164.146 35.4463 163.365 35.7307 160.002 45.6999C159.594 46.9091 157.559 51.6999 156.294 57.467C155.181 62.5415 152.809 70.176 152.301 71.9808C149.551 81.7514 148.185 87.3318 146.013 96.1232C145.177 99.5061 144.447 103.894 143.825 107.279C143.164 110.875 142.004 116.06 141.388 119.498C140.904 122.193 140.821 122.237 140.356 126.561C140.301 127.08 140.255 127.311 140.2 127.811L212.325 127.779C212.297 127.665 212.292 127.585 212.263 127.467C206.718 105.041 206.633 104.815 205.638 97.7482C205.139 94.211 200.87 72.934 199.169 64.9357C198.317 60.928 196.592 51.8129 195.787 48.7068C194.55 43.6203 192.946 37.7381 191.825 35.224C190.824 32.9793 189.064 30.1676 185.985 27.835C183.632 26.0524 181.335 25.9736 179.099 25.7413ZM212.325 127.779C213.827 133.887 213.786 134.705 216.325 143.561C216.847 145.38 218.697 151.248 219.169 152.967C220.681 158.473 223.457 169.975 230.575 175.373C234.641 178.456 243.994 175.256 248.013 169.217C250.36 165.689 252.754 155.112 253.544 153.248C255.115 149.543 256.408 142.198 257.263 138.811C259.513 129.896 259.722 128.965 260.106 127.748L212.325 127.779ZM260.106 127.748L297.513 127.717C296.832 125.127 294.486 120.391 293.7 118.404C291.985 114.069 289.54 109.287 287.106 105.186C284.604 100.969 277.717 98.6362 273.325 101.967C271.427 103.406 267.949 107.26 267.138 109.311C265.155 114.323 264.392 114.02 262.763 119.311C260.676 126.089 260.4 126.818 260.106 127.748ZM140.2 127.811L90.0126 127.842C90.0159 127.859 90.0093 127.888 90.0126 127.904C90.9959 132.875 92.6344 136.764 94.0751 142.748C94.8125 145.811 95.4249 148.036 96.6376 152.248C97.9762 156.898 98.7937 160.416 100.097 165.036C101.419 169.725 102.325 173.586 103.838 177.733C105.341 181.851 104.904 181.928 107.332 185.535C109.361 188.55 112.895 190.741 112.895 190.741C112.895 190.741 119.153 192.148 120.561 191.773C123.017 191.082 130.06 187.094 131.401 180.018C133.076 171.173 134.208 167.9 135.871 157.042C137.725 144.935 138.722 141.309 140.2 127.811ZM90.0126 127.842C89.7063 126.313 88.9691 123.581 88.6064 122.123C87.4865 117.621 87.7169 118.603 86.8564 114.904C86.3073 112.544 85.9011 110.699 85.5126 108.342C84.2916 100.935 80.8884 91.5547 79.8564 88.9982C79.414 87.9025 77.9686 84.4114 77.0439 83.3107C75.0257 80.9088 72.1349 81.2184 70.9501 81.5295C68.8017 82.0936 68.454 82.762 67.2939 84.0295C66.0941 85.3402 63.1323 90.2259 60.7001 98.8732C57.2472 111.15 56.702 115.234 54.1064 126.561C54.0177 126.948 53.9416 127.47 53.8564 127.873L90.0126 127.842ZM53.8564 127.873L15.4895 128.214C18.3202 133.368 18.8693 134.876 20.4691 137.433C21.5309 139.129 24.9181 144.547 26.1333 145.809C28.7313 148.506 32.1096 153.561 36.0385 153.191C39.5659 152.86 44.5951 146.959 46.5489 144.302C50.2507 139.267 52.7582 133.061 53.8564 127.873Z" fill="#000000" fill-rule="nonzero" opacity="1" stroke="#000000" stroke-linecap="round" stroke-linejoin="round" stroke-width="1"/>
<g fill="#000000" opacity="1" stroke="none">
<path d="M362.206 163.654C354.46 163.654 348.705 161.773 344.942 158.01C341.179 154.247 339.298 148.935 339.298 142.074L339.298 103.893C339.298 102.897 338.911 102.178 338.136 101.735C337.361 101.293 336.033 101.016 334.152 100.905L331.662 100.905C330.887 100.905 330.223 100.214 329.67 98.8304C329.117 97.4471 328.84 96.2021 328.84 95.0954C328.84 94.8741 328.895 94.5974 329.006 94.2654C329.117 93.9334 329.393 93.712 329.836 93.6014C332.603 92.716 335.646 91.1667 338.966 88.9533C342.286 86.74 345.496 84.3883 348.594 81.8983C351.693 79.4082 354.183 77.3886 356.064 75.8392C356.95 75.1752 357.697 74.6219 358.305 74.1792C358.914 73.7365 359.661 73.5152 360.546 73.5152C361.653 73.5152 362.428 73.7365 362.87 74.1792C363.313 74.6219 363.424 75.6179 363.202 77.1672L362.04 87.4593C361.93 88.898 362.262 89.8663 363.036 90.3643C363.811 90.8623 364.862 91.1114 366.19 91.1114L386.111 91.1114C386.332 91.1114 386.609 91.4987 386.941 92.2734C387.273 93.048 387.439 93.712 387.439 94.2654C387.439 96.0361 387.217 97.6684 386.775 99.1624C386.332 100.656 385.834 101.403 385.281 101.403L370.008 101.403C367.574 101.403 365.858 101.735 364.862 102.399C363.866 103.063 363.368 104.115 363.368 105.553L363.368 136.596C363.368 141.797 364.337 145.643 366.273 148.133C368.21 150.623 370.783 151.868 373.992 151.868C377.091 151.868 379.36 151.536 380.799 150.872C382.237 150.208 383.565 149.655 384.783 149.212C385.225 148.991 385.613 148.88 385.945 148.88C386.498 148.88 386.941 149.24 387.273 149.959C387.605 150.678 387.771 151.536 387.771 152.532C387.771 153.196 386.553 154.441 384.119 156.267C381.684 158.093 378.53 159.781 374.656 161.33C370.783 162.879 366.633 163.654 362.206 163.654Z"/>
<path d="M409.815 163.654C406.606 163.654 403.673 162.962 401.017 161.579C398.361 160.196 396.259 158.314 394.709 155.935C393.16 153.556 392.385 150.927 392.385 148.05C392.385 144.177 393.63 140.912 396.12 138.256C398.61 135.6 402.235 133.22 406.993 131.118L421.27 124.81C423.483 123.814 424.866 122.901 425.42 122.071C425.973 121.241 426.25 119.774 426.25 117.672L426.416 108.542C426.526 105.332 426.028 102.87 424.922 101.154C423.815 99.4391 422.1 98.5814 419.776 98.5814C418.448 98.5814 417.064 98.8858 415.626 99.4944C414.187 100.103 413.136 100.795 412.471 101.569C412.139 102.012 411.918 102.51 411.807 103.063C411.697 103.617 411.641 104.17 411.641 104.723C411.641 105.387 411.697 106.245 411.807 107.297C411.918 108.348 411.973 109.206 411.973 109.87C411.973 110.644 411.033 111.557 409.151 112.609C407.27 113.66 405.112 114.601 402.677 115.431C400.243 116.261 398.14 116.676 396.369 116.676C395.484 116.676 394.737 116.316 394.128 115.597C393.52 114.877 393.215 113.964 393.215 112.858C393.215 111.087 393.824 109.372 395.041 107.712C396.259 106.051 398.306 104.059 401.183 101.735C404.171 99.3008 407.436 97.1427 410.977 95.2614C414.519 93.38 418.005 91.8584 421.436 90.6963C424.866 89.5343 427.799 88.9533 430.234 88.9533C436.542 88.9533 441.577 90.973 445.34 95.0124C449.103 99.0518 450.873 104.447 450.652 111.198L449.822 143.402C449.711 145.947 450.126 148.133 451.067 149.959C452.008 151.785 453.197 152.698 454.636 152.698C456.628 152.698 458.399 151.979 459.948 150.54C460.28 150.208 460.612 150.042 460.944 150.042C461.497 150.042 461.968 150.236 462.355 150.623C462.742 151.01 462.936 151.481 462.936 152.034C462.936 153.362 461.829 155.133 459.616 157.346C457.513 159.449 455.245 161.026 452.81 162.077C450.375 163.128 447.83 163.654 445.174 163.654C438.755 163.654 433.388 160.445 429.072 154.026L428.74 154.026C425.088 157.457 421.823 159.919 418.946 161.413C416.068 162.907 413.025 163.654 409.815 163.654ZM420.108 152.2C421.104 152.2 421.934 152.034 422.598 151.702C423.262 151.37 423.87 150.817 424.424 150.042C424.756 149.599 425.005 149.046 425.171 148.382C425.337 147.718 425.42 146.999 425.42 146.224L425.918 133.442C425.918 132.446 425.752 131.809 425.42 131.533C425.088 131.256 424.7 131.118 424.258 131.118C424.036 131.118 423.787 131.145 423.511 131.201C423.234 131.256 422.93 131.394 422.598 131.616C419.942 133.054 417.922 134.521 416.539 136.015C415.155 137.509 414.464 140.192 414.464 144.066C414.464 147.275 415.1 149.433 416.373 150.54C417.645 151.647 418.89 152.2 420.108 152.2Z"/>
<path d="M466.721 161.828C465.614 161.828 464.784 161.607 464.231 161.164C463.677 160.721 463.401 160.113 463.401 159.338C463.401 158.453 463.733 157.761 464.397 157.263C465.061 156.765 466.001 156.295 467.219 155.852C468.879 155.299 470.317 154.718 471.535 154.109C472.752 153.5 473.361 151.979 473.361 149.544L473.361 70.6932C473.361 67.7051 473.001 65.1044 472.282 62.8911C471.562 60.6777 469.819 59.2944 467.053 58.7411C465.835 58.5197 465.227 57.6344 465.227 56.085C465.227 54.6463 465.78 53.8163 466.887 53.595C469.653 53.0417 472.835 52.184 476.432 51.022C480.028 49.86 483.459 48.6703 486.724 47.4529C489.989 46.2356 492.451 45.3503 494.111 44.7969C495.107 44.4649 495.882 44.2989 496.435 44.2989C497.21 44.2989 497.708 44.5203 497.929 44.9629C498.15 45.4056 498.261 45.9036 498.261 46.4569C498.261 47.2316 498.15 48.532 497.929 50.358C497.708 52.184 497.542 53.8717 497.431 55.421L497.431 149.212C497.431 151.647 498.04 153.168 499.257 153.777C500.474 154.386 501.913 154.967 503.573 155.52C504.79 155.963 505.731 156.433 506.395 156.931C507.059 157.429 507.391 158.121 507.391 159.006C507.391 159.781 507.114 160.389 506.561 160.832C506.008 161.275 505.178 161.496 504.071 161.496C501.858 161.496 499.644 161.441 497.431 161.33C495.218 161.219 493.06 161.136 490.957 161.081C488.854 161.026 486.807 160.998 484.815 160.998C482.933 160.998 481.024 161.053 479.088 161.164C477.151 161.275 475.159 161.413 473.112 161.579C471.064 161.745 468.934 161.828 466.721 161.828Z"/>
<path d="M514.496 161.828C512.282 161.828 511.176 160.998 511.176 159.338C511.176 158.453 511.508 157.761 512.172 157.263C512.836 156.765 513.776 156.295 514.994 155.852C516.654 155.299 518.093 154.718 519.31 154.109C520.527 153.5 521.136 151.979 521.136 149.544L521.136 70.6932C521.136 67.7051 520.776 65.1044 520.057 62.8911C519.338 60.6777 517.595 59.2944 514.828 58.7411C513.61 58.5197 513.002 57.6344 513.002 56.085C513.002 54.6463 513.555 53.8163 514.662 53.595C517.429 53.0417 520.583 52.184 524.124 51.022C527.665 49.86 531.068 48.6703 534.333 47.4529C537.598 46.2356 540.06 45.3503 541.72 44.7969C542.716 44.4649 543.491 44.2989 544.044 44.2989C544.819 44.2989 545.317 44.5203 545.538 44.9629C545.759 45.4056 545.87 45.9036 545.87 46.4569C545.87 47.2316 545.759 48.532 545.538 50.358C545.317 52.184 545.151 53.8717 545.04 55.421L545.206 119.166C545.206 120.604 545.704 121.324 546.7 121.324C547.032 121.324 547.392 121.213 547.779 120.992C548.166 120.77 548.471 120.604 548.692 120.494C552.676 116.952 556.301 113.328 559.565 109.621C562.83 105.913 565.016 103.174 566.122 101.403C566.565 100.739 566.925 100.158 567.201 99.6604C567.478 99.1624 567.616 98.7474 567.616 98.4154C567.616 97.8621 567.174 97.2811 566.288 96.6724C565.403 96.0637 564.02 95.6487 562.138 95.4274C560.81 95.2061 560.146 94.542 560.146 93.4354C560.146 92.4394 560.561 91.803 561.391 91.5264C562.221 91.2497 563.024 91.1114 563.798 91.1114L571.932 91.1114C573.924 91.1114 576.663 91.0284 580.149 90.8623C583.635 90.6963 587.066 90.475 590.442 90.1983C593.817 89.9217 596.224 89.728 597.663 89.6173C598.88 89.6173 599.489 90.2813 599.489 91.6094C599.489 92.4947 599.157 93.2417 598.493 93.8504C597.829 94.459 596.888 94.8741 595.671 95.0954C593.789 95.5381 591.521 96.3127 588.864 97.4194C586.208 98.5261 583.442 99.9094 580.564 101.569C578.462 102.676 576.359 103.921 574.256 105.304C572.154 106.688 570.189 108.099 568.363 109.538C566.537 110.976 564.905 112.415 563.466 113.854C562.913 114.407 562.636 115.016 562.636 115.68C562.636 116.122 562.775 116.482 563.051 116.759C563.328 117.035 563.577 117.34 563.798 117.672C566.454 121.102 568.889 124.45 571.102 127.715C573.316 130.979 575.584 134.161 577.908 137.26C580.232 140.358 582.833 143.568 585.71 146.888C587.592 148.991 589.888 150.9 592.6 152.615C595.311 154.33 597.552 155.52 599.323 156.184C600.208 156.516 601.176 156.903 602.228 157.346C603.279 157.789 603.805 158.453 603.805 159.338C603.805 160.998 602.587 161.828 600.153 161.828C592.959 161.828 586.07 161.745 579.485 161.579C572.901 161.413 566.842 161.33 561.308 161.33C559.095 161.33 557.988 160.5 557.988 158.84C557.988 157.955 558.32 157.263 558.984 156.765C559.648 156.267 560.589 155.797 561.806 155.354C562.692 155.022 563.273 154.662 563.549 154.275C563.826 153.888 564.02 153.473 564.13 153.03C564.13 152.477 563.937 151.896 563.549 151.287C563.162 150.678 562.636 149.931 561.972 149.046L546.866 126.968C546.645 126.746 546.423 126.636 546.202 126.636C545.538 126.857 545.206 127.3 545.206 127.964C545.206 129.624 545.206 131.311 545.206 133.027C545.206 134.742 545.206 136.43 545.206 138.09C545.206 139.86 545.206 141.769 545.206 143.817C545.206 145.864 545.206 147.829 545.206 149.71C545.206 151.481 545.566 152.781 546.285 153.611C547.004 154.441 548.249 155.133 550.02 155.686C550.905 156.018 551.68 156.461 552.344 157.014C553.008 157.567 553.34 158.287 553.34 159.172C553.34 159.947 553.091 160.583 552.593 161.081C552.095 161.579 551.403 161.828 550.518 161.828C548.305 161.828 546.202 161.745 544.21 161.579C542.218 161.413 540.281 161.275 538.4 161.164C536.519 161.053 534.582 160.998 532.59 160.998C530.709 160.998 528.8 161.053 526.863 161.164C524.926 161.275 522.934 161.413 520.887 161.579C518.84 161.745 516.709 161.828 514.496 161.828Z"/>
<path d="M637.802 163.654C633.043 163.654 628.395 163.128 623.858 162.077C619.32 161.026 615.059 159.283 611.075 156.848C610.301 156.295 609.554 155.658 608.834 154.939C608.115 154.22 607.589 153.473 607.257 152.698C606.04 149.489 605.21 145.643 604.767 141.161C604.325 136.679 604.214 132.003 604.435 127.134C604.435 126.359 604.74 125.806 605.348 125.474C605.957 125.142 606.704 124.976 607.589 124.976C608.807 124.976 609.609 125.142 609.996 125.474C610.384 125.806 610.799 126.359 611.241 127.134C613.787 135.323 617.522 142.129 622.446 147.552C627.371 152.975 633.209 155.686 639.96 155.686C643.39 155.686 646.185 154.884 648.343 153.279C650.501 151.674 652.105 149.682 653.157 147.303C654.208 144.924 654.734 142.627 654.734 140.414C654.734 137.094 654.07 134.272 652.742 131.948C651.414 129.624 649.366 127.466 646.6 125.474C643.833 123.482 640.236 121.324 635.81 119C631.162 116.454 626.652 113.688 622.28 110.7C617.909 107.712 614.34 104.059 611.573 99.7434C608.807 95.4274 607.423 90.0047 607.423 83.4753C607.423 76.8352 609.222 71.1082 612.818 66.2941C616.415 61.4801 621.229 57.745 627.261 55.089C633.292 52.433 639.904 51.105 647.098 51.105C651.303 51.105 655.425 51.5477 659.465 52.433C663.504 53.3183 666.741 54.259 669.176 55.255C670.615 55.8084 671.611 56.3894 672.164 56.998C672.717 57.6067 673.271 58.8517 673.824 60.7331C674.377 63.0571 674.792 65.9068 675.069 69.2821C675.346 72.6575 675.484 76.5032 675.484 80.8193C675.484 82.2579 674.433 82.9773 672.33 82.9773C671.445 82.9773 670.587 82.7283 669.757 82.2303C668.927 81.7323 668.401 81.0959 668.18 80.3213C666.409 73.4599 663.643 68.2861 659.88 64.8001C656.117 61.3141 651.524 59.5711 646.102 59.5711C642.671 59.5711 639.877 60.1244 637.719 61.2311C635.561 62.3378 633.956 63.9148 632.905 65.9621C631.853 68.0095 631.328 70.5825 631.328 73.6812C631.328 76.1159 632.213 78.4399 633.984 80.6533C635.754 82.8666 638.327 85.1076 641.703 87.3763C645.078 89.645 649.034 92.1627 653.572 94.9294C659.991 98.6921 664.971 102.344 668.512 105.885C672.053 109.427 674.543 113.107 675.982 116.925C677.421 120.743 678.14 125.086 678.14 129.956C678.14 137.813 676.452 144.232 673.077 149.212C669.702 154.192 664.998 157.844 658.967 160.168C652.935 162.492 645.88 163.654 637.802 163.654Z"/>
<path d="M720.271 163.654C714.295 163.654 708.928 162.049 704.169 158.84C699.41 155.631 695.648 151.287 692.881 145.809C690.114 140.331 688.731 134.161 688.731 127.3C688.731 120.106 690.418 113.632 693.794 107.878C697.169 102.123 701.679 97.5301 707.323 94.0994C712.967 90.6687 719.275 88.9533 726.247 88.9533C735.765 88.9533 743.567 92.1627 749.653 98.5814C750.539 99.6881 750.981 100.684 750.981 101.569C750.981 102.233 750.483 103.202 749.487 104.474C748.491 105.747 747.357 106.909 746.084 107.961C744.812 109.012 743.733 109.538 742.847 109.538C741.741 109.538 740.689 109.206 739.693 108.542C738.697 107.878 737.757 107.158 736.871 106.383C733.883 103.838 730.923 101.818 727.99 100.324C725.057 98.8304 722.484 98.0834 720.271 98.0834C716.398 98.0834 713.52 99.6604 711.639 102.814C709.758 105.968 708.817 111.474 708.817 119.332C708.817 124.754 709.592 129.402 711.141 133.276C712.69 137.149 715.014 140.109 718.113 142.157C721.212 144.204 725.03 145.228 729.567 145.228C732.887 145.228 735.792 144.675 738.282 143.568C740.772 142.461 743.345 140.912 746.001 138.92C746.555 138.477 747.053 138.09 747.495 137.758C747.938 137.426 748.436 137.26 748.989 137.26C750.317 137.26 750.981 138.145 750.981 139.916C750.981 140.358 750.926 140.967 750.815 141.742C750.705 142.516 750.428 143.402 749.985 144.398C749.1 146.611 747.219 149.24 744.341 152.283C741.464 155.326 737.978 157.982 733.883 160.251C729.788 162.52 725.251 163.654 720.271 163.654Z"/>
<path d="M771.864 163.654C768.655 163.654 765.722 162.962 763.066 161.579C760.41 160.196 758.307 158.314 756.758 155.935C755.209 153.556 754.434 150.927 754.434 148.05C754.434 144.177 755.679 140.912 758.169 138.256C760.659 135.6 764.284 133.22 769.042 131.118L783.318 124.81C785.532 123.814 786.915 122.901 787.468 122.071C788.022 121.241 788.298 119.774 788.298 117.672L788.464 108.542C788.575 105.332 788.077 102.87 786.97 101.154C785.864 99.4391 784.148 98.5814 781.824 98.5814C780.496 98.5814 779.113 98.8858 777.674 99.4944C776.236 100.103 775.184 100.795 774.52 101.569C774.188 102.012 773.967 102.51 773.856 103.063C773.746 103.617 773.69 104.17 773.69 104.723C773.69 105.387 773.746 106.245 773.856 107.297C773.967 108.348 774.022 109.206 774.022 109.87C774.022 110.644 773.082 111.557 771.2 112.609C769.319 113.66 767.161 114.601 764.726 115.431C762.291 116.261 760.189 116.676 758.418 116.676C757.533 116.676 756.786 116.316 756.177 115.597C755.568 114.877 755.264 113.964 755.264 112.858C755.264 111.087 755.873 109.372 757.09 107.712C758.307 106.051 760.355 104.059 763.232 101.735C766.22 99.3008 769.485 97.1427 773.026 95.2614C776.568 93.38 780.054 91.8584 783.484 90.6963C786.915 89.5343 789.848 88.9533 792.282 88.9533C798.59 88.9533 803.626 90.973 807.389 95.0124C811.151 99.0518 812.922 104.447 812.701 111.198L811.871 143.402C811.76 145.947 812.175 148.133 813.116 149.959C814.056 151.785 815.246 152.698 816.685 152.698C818.677 152.698 820.447 151.979 821.997 150.54C822.329 150.208 822.661 150.042 822.993 150.042C823.546 150.042 824.016 150.236 824.404 150.623C824.791 151.01 824.985 151.481 824.985 152.034C824.985 153.362 823.878 155.133 821.665 157.346C819.562 159.449 817.293 161.026 814.859 162.077C812.424 163.128 809.879 163.654 807.223 163.654C800.804 163.654 795.436 160.445 791.12 154.026L790.788 154.026C787.136 157.457 783.872 159.919 780.994 161.413C778.117 162.907 775.074 163.654 771.864 163.654ZM782.156 152.2C783.152 152.2 783.982 152.034 784.646 151.702C785.31 151.37 785.919 150.817 786.472 150.042C786.804 149.599 787.053 149.046 787.219 148.382C787.385 147.718 787.468 146.999 787.468 146.224L787.966 133.442C787.966 132.446 787.8 131.809 787.468 131.533C787.136 131.256 786.749 131.118 786.306 131.118C786.085 131.118 785.836 131.145 785.559 131.201C785.283 131.256 784.978 131.394 784.646 131.616C781.99 133.054 779.971 134.521 778.587 136.015C777.204 137.509 776.512 140.192 776.512 144.066C776.512 147.275 777.149 149.433 778.421 150.54C779.694 151.647 780.939 152.2 782.156 152.2Z"/>
<path d="M828.769 161.828C827.663 161.828 826.833 161.607 826.279 161.164C825.726 160.721 825.449 160.113 825.449 159.338C825.449 158.453 825.781 157.761 826.445 157.263C827.109 156.765 828.05 156.295 829.267 155.852C830.927 155.299 832.366 154.718 833.583 154.109C834.801 153.5 835.41 151.979 835.41 149.544L835.41 70.6932C835.41 67.7051 835.05 65.1044 834.33 62.8911C833.611 60.6777 831.868 59.2944 829.101 58.7411C827.884 58.5197 827.275 57.6344 827.275 56.085C827.275 54.6463 827.829 53.8163 828.935 53.595C831.702 53.0417 834.884 52.184 838.481 51.022C842.077 49.86 845.508 48.6703 848.773 47.4529C852.037 46.2356 854.5 45.3503 856.16 44.7969C857.156 44.4649 857.93 44.2989 858.484 44.2989C859.258 44.2989 859.756 44.5203 859.978 44.9629C860.199 45.4056 860.31 45.9036 860.31 46.4569C860.31 47.2316 860.199 48.532 859.978 50.358C859.756 52.184 859.59 53.8717 859.48 55.421L859.48 149.212C859.48 151.647 860.088 153.168 861.306 153.777C862.523 154.386 863.962 154.967 865.622 155.52C866.839 155.963 867.78 156.433 868.444 156.931C869.108 157.429 869.44 158.121 869.44 159.006C869.44 159.781 869.163 160.389 868.61 160.832C868.056 161.275 867.226 161.496 866.12 161.496C863.906 161.496 861.693 161.441 859.48 161.33C857.266 161.219 855.108 161.136 853.006 161.081C850.903 161.026 848.856 160.998 846.864 160.998C844.982 160.998 843.073 161.053 841.137 161.164C839.2 161.275 837.208 161.413 835.161 161.579C833.113 161.745 830.983 161.828 828.769 161.828Z"/>
<path d="M902.441 163.654C896.465 163.654 891.097 162.049 886.339 158.84C881.58 155.631 877.817 151.287 875.051 145.809C872.284 140.331 870.901 134.161 870.901 127.3C870.901 120.217 872.561 113.771 875.881 107.961C879.201 102.15 883.683 97.5301 889.327 94.0994C894.971 90.6687 901.223 88.9533 908.085 88.9533C912.844 88.9533 917.16 90.0047 921.033 92.1074C924.906 94.21 928.005 97.0044 930.329 100.49C932.653 103.976 933.815 107.933 933.815 112.36C933.815 116.676 932.1 118.834 928.669 118.834L895.801 118.834C894.251 118.834 893.117 119.276 892.398 120.162C891.678 121.047 891.319 122.541 891.319 124.644C891.319 128.628 892.204 132.252 893.975 135.517C895.745 138.781 898.18 141.354 901.279 143.236C904.377 145.117 907.974 146.058 912.069 146.058C915.278 146.058 918.239 145.449 920.95 144.232C923.661 143.014 926.4 141.354 929.167 139.252C929.499 139.03 929.886 138.781 930.329 138.505C930.772 138.228 931.159 138.09 931.491 138.09C932.708 138.09 933.317 138.809 933.317 140.248C933.317 141.244 932.985 142.738 932.321 144.73C931.325 147.718 929.499 150.678 926.843 153.611C924.187 156.544 920.784 158.951 916.634 160.832C912.484 162.713 907.753 163.654 902.441 163.654ZM895.801 111.53L904.599 111.53C907.808 111.53 909.939 111.474 910.99 111.364C912.041 111.253 913.01 111.032 913.895 110.7C914.448 110.478 914.891 109.87 915.223 108.874C915.555 107.878 915.721 106.826 915.721 105.719C915.721 102.842 914.808 100.49 912.982 98.6644C911.156 96.8384 908.804 95.9254 905.927 95.9254C903.713 95.9254 901.638 96.5617 899.702 97.8344C897.765 99.1071 896.188 100.739 894.971 102.731C893.753 104.723 893.2 106.826 893.311 109.04C893.311 110.7 894.141 111.53 895.801 111.53Z"/>
<path d="M995.866 164.484C995.534 164.484 995.036 164.097 994.372 163.322C993.708 162.547 993.376 161.939 993.376 161.496C993.708 159.615 993.93 157.982 994.04 156.599C994.151 155.216 994.262 153.971 994.372 152.864L994.372 151.868C991.938 155.52 988.728 158.397 984.744 160.5C980.76 162.603 976.61 163.654 972.294 163.654C966.207 163.654 960.729 162.132 955.86 159.089C950.991 156.046 947.117 151.868 944.24 146.556C941.363 141.244 939.924 135.323 939.924 128.794C939.924 121.047 941.639 114.213 945.07 108.293C948.501 102.372 953.259 97.7514 959.346 94.4314C965.433 91.1114 972.405 89.4513 980.262 89.4513C981.812 89.4513 983.444 89.562 985.159 89.7833C986.875 90.0047 988.507 90.3367 990.056 90.7793C991.716 91.1114 992.436 91.2774 992.214 91.2774C992.657 91.2774 992.878 90.6687 992.878 89.4513L992.878 70.6932C992.878 66.8198 992.436 63.9701 991.55 62.1441C990.665 60.3181 989.06 59.1837 986.736 58.7411C985.408 58.409 984.744 57.5237 984.744 56.085C984.744 54.6463 985.353 53.8163 986.57 53.595C990.554 52.7097 994.898 51.5477 999.601 50.109C1004.3 48.6703 1008.21 47.2869 1011.3 45.9589C1012.96 45.1843 1014.07 44.7139 1014.62 44.5479C1015.18 44.3819 1015.51 44.2989 1015.62 44.2989C1016.95 44.2989 1017.61 45.0183 1017.61 46.4569C1017.61 45.9036 1017.56 46.1526 1017.45 47.2039C1017.34 48.2553 1017.23 49.5833 1017.11 51.188C1017 52.7927 1016.89 54.2037 1016.78 55.421L1015.79 141.078C1015.79 144.841 1016.06 147.524 1016.62 149.129C1017.17 150.734 1018.17 151.536 1019.6 151.536C1020.16 151.536 1020.68 151.508 1021.18 151.453C1021.68 151.398 1023.31 151.259 1026.08 151.038C1027.52 150.927 1028.24 151.536 1028.24 152.864C1028.24 153.749 1027.88 154.718 1027.16 155.769C1026.44 156.82 1025.8 157.346 1025.25 157.346C1021.04 157.789 1016.62 158.536 1011.97 159.587C1007.32 160.638 1002.95 161.939 998.854 163.488C998.19 163.82 997.609 164.069 997.111 164.235C996.613 164.401 996.198 164.484 995.866 164.484ZM981.424 151.702C982.752 151.702 984.634 151.342 987.068 150.623C989.503 149.904 991.44 148.825 992.878 147.386L992.712 109.04C992.712 107.38 991.993 105.664 990.554 103.893C989.116 102.123 987.345 100.629 985.242 99.4114C983.14 98.1941 981.148 97.5854 979.266 97.5854C976.61 97.5854 974.258 98.7198 972.211 100.988C970.164 103.257 968.531 106.383 967.314 110.368C966.097 114.352 965.488 118.944 965.488 124.146C965.488 128.24 965.875 131.975 966.65 135.351C967.425 138.726 968.531 141.631 969.97 144.066C971.409 146.501 973.096 148.382 975.033 149.71C976.97 151.038 979.1 151.702 981.424 151.702Z"/>
</g>
</g>
</svg>
