<?xml version="1.0" encoding="UTF-8" standalone="no"?>
<!DOCTYPE svg PUBLIC "-//W3C//DTD SVG 1.1//EN" "http://www.w3.org/Graphics/SVG/1.1/DTD/svg11.dtd">
<svg height="100%" stroke-miterlimit="10" style="fill-rule:nonzero;clip-rule:evenodd;stroke-linecap:round;stroke-linejoin:round;" version="1.1" viewBox="0 0 298.39 217.577" width="100%" xml:space="preserve" xmlns="http://www.w3.org/2000/svg" xmlns:xlink="http://www.w3.org/1999/xlink">
<defs/>
<g id="Layer-4">
<path d="M172.711 18.9061C168.403 18.8965 167.101 20.1304 166.504 20.2857C164.664 20.7636 160.686 24.2069 158.851 26.8486C157.375 28.9737 156.574 29.2687 153.125 39.6102C152.707 40.8647 150.619 45.8344 149.322 51.8168C148.18 57.081 145.748 65.0006 145.227 66.8728C142.406 77.0084 141.005 82.7972 138.778 91.917C137.92 95.4262 137.172 99.9778 136.534 103.49C135.856 107.22 134.667 112.598 134.034 116.165C133.538 118.96 133.453 119.006 132.977 123.491C132.919 124.03 132.872 124.27 132.816 124.788L206.786 124.756C206.758 124.637 206.752 124.554 206.722 124.431C201.036 101.168 200.949 100.934 199.928 93.6027C199.417 89.9333 195.038 67.8616 193.294 59.5645C192.42 55.4071 190.651 45.9516 189.825 42.7294C188.557 37.453 186.912 31.351 185.762 28.743C184.735 26.4145 182.93 23.4978 179.772 21.078C177.359 19.2289 175.003 19.1472 172.711 18.9061ZM206.786 124.756C208.326 131.091 208.285 131.94 210.889 141.126C211.424 143.014 213.321 149.101 213.805 150.884C215.356 156.595 218.203 168.528 225.503 174.127C229.673 177.325 239.266 174.005 243.387 167.741C245.795 164.081 248.249 153.109 249.06 151.176C250.671 147.332 251.997 139.713 252.874 136.199C255.181 126.952 255.396 125.986 255.79 124.723L206.786 124.756ZM255.79 124.723L294.153 124.691C293.455 122.004 291.049 117.091 290.243 115.03C288.484 110.533 285.977 105.573 283.481 101.318C280.915 96.9437 273.852 94.5239 269.347 97.979C267.401 99.4717 263.833 103.47 263.001 105.597C260.968 110.796 260.185 110.483 258.514 115.971C256.374 123.002 256.091 123.758 255.79 124.723ZM132.816 124.788L81.3449 124.82C81.3483 124.838 81.3415 124.868 81.3449 124.885C82.3533 130.042 84.0338 134.076 85.5113 140.284C86.2676 143.461 86.8957 145.769 88.1394 150.138C89.5122 154.962 90.3507 158.611 91.687 163.403C93.0434 168.268 93.9722 172.273 95.5242 176.575C97.0657 180.847 96.6176 180.927 99.107 184.669C101.188 187.796 104.813 190.069 104.813 190.069C104.813 190.069 111.231 191.528 112.675 191.139C115.194 190.422 122.417 186.286 123.792 178.946C125.51 169.77 126.671 166.374 128.377 155.111C130.278 142.552 131.301 138.79 132.816 124.788ZM81.3449 124.82C81.0308 123.234 80.2747 120.401 79.9027 118.888C78.7541 114.218 78.9904 115.237 78.1079 111.4C77.5448 108.952 77.1282 107.037 76.7298 104.592C75.4776 96.9084 71.9873 87.1778 70.9288 84.5258C70.4752 83.3892 68.9928 79.7677 68.0444 78.6259C65.9746 76.1342 63.0099 76.4554 61.7947 76.7781C59.5914 77.3633 59.2348 78.0567 58.0449 79.3715C56.8145 80.7312 53.7769 85.7994 51.2825 94.7697C47.7412 107.505 47.1821 111.742 44.5201 123.491C44.4291 123.893 44.3511 124.435 44.2637 124.853L81.3449 124.82ZM44.2637 124.853L4.91533 125.206C7.81845 130.553 8.3816 132.118 10.0222 134.769C11.1112 136.529 14.5851 142.149 15.8314 143.458C18.4958 146.256 21.9605 151.5 25.99 151.117C29.6076 150.773 34.7655 144.652 36.7692 141.895C40.5658 136.672 43.1375 130.235 44.2637 124.853Z" fill="#000000" fill-rule="nonzero" opacity="1" stroke="#000000" stroke-linecap="round" stroke-linejoin="round" stroke-width="1"/>
</g>
</svg>
